<?xml version="1.0" encoding="utf-8" standalone="no"?>
<!DOCTYPE svg PUBLIC "-//W3C//DTD SVG 1.1//EN"
  "http://www.w3.org/Graphics/SVG/1.1/DTD/svg11.dtd">
<!-- Created with matplotlib (https://matplotlib.org/) -->
<svg height="360pt" version="1.1" viewBox="0 0 2160 360" width="2160pt" xmlns="http://www.w3.org/2000/svg" xmlns:xlink="http://www.w3.org/1999/xlink">
 <defs>
  <style type="text/css">
*{stroke-linecap:butt;stroke-linejoin:round;}
  </style>
 </defs>
 <g id="figure_1">
  <g id="patch_1">
   <path d="M 0 360 
L 2160 360 
L 2160 0 
L 0 0 
z
" style="fill:#ffffff;"/>
  </g>
  <g id="axes_1">
   <g id="patch_2">
    <path d="M 270 320.4 
L 1944 320.4 
L 1944 43.2 
L 270 43.2 
z
" style="fill:#ffffff;"/>
   </g>
   <g id="matplotlib.axis_1">
    <g id="xtick_1">
     <g id="line2d_1">
      <path clip-path="url(#pc5f44cb632)" d="M 345.203752 320.4 
L 345.203752 43.2 
" style="fill:none;stroke:#b0b0b0;stroke-linecap:square;stroke-width:0.8;"/>
     </g>
     <g id="line2d_2">
      <defs>
       <path d="M 0 0 
L 0 3.5 
" id="m3b6fe53413" style="stroke:#000000;stroke-width:0.8;"/>
      </defs>
      <g>
       <use style="stroke:#000000;stroke-width:0.8;" x="345.203752" xlink:href="#m3b6fe53413" y="320.4"/>
      </g>
     </g>
     <g id="text_1">
      <!-- 02-14 00 -->
      <defs>
       <path d="M 31.78125 66.40625 
Q 24.171875 66.40625 20.328125 58.90625 
Q 16.5 51.421875 16.5 36.375 
Q 16.5 21.390625 20.328125 13.890625 
Q 24.171875 6.390625 31.78125 6.390625 
Q 39.453125 6.390625 43.28125 13.890625 
Q 47.125 21.390625 47.125 36.375 
Q 47.125 51.421875 43.28125 58.90625 
Q 39.453125 66.40625 31.78125 66.40625 
z
M 31.78125 74.21875 
Q 44.046875 74.21875 50.515625 64.515625 
Q 56.984375 54.828125 56.984375 36.375 
Q 56.984375 17.96875 50.515625 8.265625 
Q 44.046875 -1.421875 31.78125 -1.421875 
Q 19.53125 -1.421875 13.0625 8.265625 
Q 6.59375 17.96875 6.59375 36.375 
Q 6.59375 54.828125 13.0625 64.515625 
Q 19.53125 74.21875 31.78125 74.21875 
z
" id="DejaVuSans-48"/>
       <path d="M 19.1875 8.296875 
L 53.609375 8.296875 
L 53.609375 0 
L 7.328125 0 
L 7.328125 8.296875 
Q 12.9375 14.109375 22.625 23.890625 
Q 32.328125 33.6875 34.8125 36.53125 
Q 39.546875 41.84375 41.421875 45.53125 
Q 43.3125 49.21875 43.3125 52.78125 
Q 43.3125 58.59375 39.234375 62.25 
Q 35.15625 65.921875 28.609375 65.921875 
Q 23.96875 65.921875 18.8125 64.3125 
Q 13.671875 62.703125 7.8125 59.421875 
L 7.8125 69.390625 
Q 13.765625 71.78125 18.9375 73 
Q 24.125 74.21875 28.421875 74.21875 
Q 39.75 74.21875 46.484375 68.546875 
Q 53.21875 62.890625 53.21875 53.421875 
Q 53.21875 48.921875 51.53125 44.890625 
Q 49.859375 40.875 45.40625 35.40625 
Q 44.1875 33.984375 37.640625 27.21875 
Q 31.109375 20.453125 19.1875 8.296875 
z
" id="DejaVuSans-50"/>
       <path d="M 4.890625 31.390625 
L 31.203125 31.390625 
L 31.203125 23.390625 
L 4.890625 23.390625 
z
" id="DejaVuSans-45"/>
       <path d="M 12.40625 8.296875 
L 28.515625 8.296875 
L 28.515625 63.921875 
L 10.984375 60.40625 
L 10.984375 69.390625 
L 28.421875 72.90625 
L 38.28125 72.90625 
L 38.28125 8.296875 
L 54.390625 8.296875 
L 54.390625 0 
L 12.40625 0 
z
" id="DejaVuSans-49"/>
       <path d="M 37.796875 64.3125 
L 12.890625 25.390625 
L 37.796875 25.390625 
z
M 35.203125 72.90625 
L 47.609375 72.90625 
L 47.609375 25.390625 
L 58.015625 25.390625 
L 58.015625 17.1875 
L 47.609375 17.1875 
L 47.609375 0 
L 37.796875 0 
L 37.796875 17.1875 
L 4.890625 17.1875 
L 4.890625 26.703125 
z
" id="DejaVuSans-52"/>
       <path id="DejaVuSans-32"/>
      </defs>
      <g transform="translate(322.723283 334.998438)scale(0.1 -0.1)">
       <use xlink:href="#DejaVuSans-48"/>
       <use x="63.623047" xlink:href="#DejaVuSans-50"/>
       <use x="127.246094" xlink:href="#DejaVuSans-45"/>
       <use x="163.330078" xlink:href="#DejaVuSans-49"/>
       <use x="226.953125" xlink:href="#DejaVuSans-52"/>
       <use x="290.576172" xlink:href="#DejaVuSans-32"/>
       <use x="322.363281" xlink:href="#DejaVuSans-48"/>
       <use x="385.986328" xlink:href="#DejaVuSans-48"/>
      </g>
     </g>
    </g>
    <g id="xtick_2">
     <g id="line2d_3">
      <path clip-path="url(#pc5f44cb632)" d="M 499.74083 320.4 
L 499.74083 43.2 
" style="fill:none;stroke:#b0b0b0;stroke-linecap:square;stroke-width:0.8;"/>
     </g>
     <g id="line2d_4">
      <g>
       <use style="stroke:#000000;stroke-width:0.8;" x="499.74083" xlink:href="#m3b6fe53413" y="320.4"/>
      </g>
     </g>
     <g id="text_2">
      <!-- 02-14 03 -->
      <defs>
       <path d="M 40.578125 39.3125 
Q 47.65625 37.796875 51.625 33 
Q 55.609375 28.21875 55.609375 21.1875 
Q 55.609375 10.40625 48.1875 4.484375 
Q 40.765625 -1.421875 27.09375 -1.421875 
Q 22.515625 -1.421875 17.65625 -0.515625 
Q 12.796875 0.390625 7.625 2.203125 
L 7.625 11.71875 
Q 11.71875 9.328125 16.59375 8.109375 
Q 21.484375 6.890625 26.8125 6.890625 
Q 36.078125 6.890625 40.9375 10.546875 
Q 45.796875 14.203125 45.796875 21.1875 
Q 45.796875 27.640625 41.28125 31.265625 
Q 36.765625 34.90625 28.71875 34.90625 
L 20.21875 34.90625 
L 20.21875 43.015625 
L 29.109375 43.015625 
Q 36.375 43.015625 40.234375 45.921875 
Q 44.09375 48.828125 44.09375 54.296875 
Q 44.09375 59.90625 40.109375 62.90625 
Q 36.140625 65.921875 28.71875 65.921875 
Q 24.65625 65.921875 20.015625 65.03125 
Q 15.375 64.15625 9.8125 62.3125 
L 9.8125 71.09375 
Q 15.4375 72.65625 20.34375 73.4375 
Q 25.25 74.21875 29.59375 74.21875 
Q 40.828125 74.21875 47.359375 69.109375 
Q 53.90625 64.015625 53.90625 55.328125 
Q 53.90625 49.265625 50.4375 45.09375 
Q 46.96875 40.921875 40.578125 39.3125 
z
" id="DejaVuSans-51"/>
      </defs>
      <g transform="translate(477.260361 334.998438)scale(0.1 -0.1)">
       <use xlink:href="#DejaVuSans-48"/>
       <use x="63.623047" xlink:href="#DejaVuSans-50"/>
       <use x="127.246094" xlink:href="#DejaVuSans-45"/>
       <use x="163.330078" xlink:href="#DejaVuSans-49"/>
       <use x="226.953125" xlink:href="#DejaVuSans-52"/>
       <use x="290.576172" xlink:href="#DejaVuSans-32"/>
       <use x="322.363281" xlink:href="#DejaVuSans-48"/>
       <use x="385.986328" xlink:href="#DejaVuSans-51"/>
      </g>
     </g>
    </g>
    <g id="xtick_3">
     <g id="line2d_5">
      <path clip-path="url(#pc5f44cb632)" d="M 654.277907 320.4 
L 654.277907 43.2 
" style="fill:none;stroke:#b0b0b0;stroke-linecap:square;stroke-width:0.8;"/>
     </g>
     <g id="line2d_6">
      <g>
       <use style="stroke:#000000;stroke-width:0.8;" x="654.277907" xlink:href="#m3b6fe53413" y="320.4"/>
      </g>
     </g>
     <g id="text_3">
      <!-- 02-14 06 -->
      <defs>
       <path d="M 33.015625 40.375 
Q 26.375 40.375 22.484375 35.828125 
Q 18.609375 31.296875 18.609375 23.390625 
Q 18.609375 15.53125 22.484375 10.953125 
Q 26.375 6.390625 33.015625 6.390625 
Q 39.65625 6.390625 43.53125 10.953125 
Q 47.40625 15.53125 47.40625 23.390625 
Q 47.40625 31.296875 43.53125 35.828125 
Q 39.65625 40.375 33.015625 40.375 
z
M 52.59375 71.296875 
L 52.59375 62.3125 
Q 48.875 64.0625 45.09375 64.984375 
Q 41.3125 65.921875 37.59375 65.921875 
Q 27.828125 65.921875 22.671875 59.328125 
Q 17.53125 52.734375 16.796875 39.40625 
Q 19.671875 43.65625 24.015625 45.921875 
Q 28.375 48.1875 33.59375 48.1875 
Q 44.578125 48.1875 50.953125 41.515625 
Q 57.328125 34.859375 57.328125 23.390625 
Q 57.328125 12.15625 50.6875 5.359375 
Q 44.046875 -1.421875 33.015625 -1.421875 
Q 20.359375 -1.421875 13.671875 8.265625 
Q 6.984375 17.96875 6.984375 36.375 
Q 6.984375 53.65625 15.1875 63.9375 
Q 23.390625 74.21875 37.203125 74.21875 
Q 40.921875 74.21875 44.703125 73.484375 
Q 48.484375 72.75 52.59375 71.296875 
z
" id="DejaVuSans-54"/>
      </defs>
      <g transform="translate(631.797439 334.998438)scale(0.1 -0.1)">
       <use xlink:href="#DejaVuSans-48"/>
       <use x="63.623047" xlink:href="#DejaVuSans-50"/>
       <use x="127.246094" xlink:href="#DejaVuSans-45"/>
       <use x="163.330078" xlink:href="#DejaVuSans-49"/>
       <use x="226.953125" xlink:href="#DejaVuSans-52"/>
       <use x="290.576172" xlink:href="#DejaVuSans-32"/>
       <use x="322.363281" xlink:href="#DejaVuSans-48"/>
       <use x="385.986328" xlink:href="#DejaVuSans-54"/>
      </g>
     </g>
    </g>
    <g id="xtick_4">
     <g id="line2d_7">
      <path clip-path="url(#pc5f44cb632)" d="M 808.814985 320.4 
L 808.814985 43.2 
" style="fill:none;stroke:#b0b0b0;stroke-linecap:square;stroke-width:0.8;"/>
     </g>
     <g id="line2d_8">
      <g>
       <use style="stroke:#000000;stroke-width:0.8;" x="808.814985" xlink:href="#m3b6fe53413" y="320.4"/>
      </g>
     </g>
     <g id="text_4">
      <!-- 02-14 09 -->
      <defs>
       <path d="M 10.984375 1.515625 
L 10.984375 10.5 
Q 14.703125 8.734375 18.5 7.8125 
Q 22.3125 6.890625 25.984375 6.890625 
Q 35.75 6.890625 40.890625 13.453125 
Q 46.046875 20.015625 46.78125 33.40625 
Q 43.953125 29.203125 39.59375 26.953125 
Q 35.25 24.703125 29.984375 24.703125 
Q 19.046875 24.703125 12.671875 31.3125 
Q 6.296875 37.9375 6.296875 49.421875 
Q 6.296875 60.640625 12.9375 67.421875 
Q 19.578125 74.21875 30.609375 74.21875 
Q 43.265625 74.21875 49.921875 64.515625 
Q 56.59375 54.828125 56.59375 36.375 
Q 56.59375 19.140625 48.40625 8.859375 
Q 40.234375 -1.421875 26.421875 -1.421875 
Q 22.703125 -1.421875 18.890625 -0.6875 
Q 15.09375 0.046875 10.984375 1.515625 
z
M 30.609375 32.421875 
Q 37.25 32.421875 41.125 36.953125 
Q 45.015625 41.5 45.015625 49.421875 
Q 45.015625 57.28125 41.125 61.84375 
Q 37.25 66.40625 30.609375 66.40625 
Q 23.96875 66.40625 20.09375 61.84375 
Q 16.21875 57.28125 16.21875 49.421875 
Q 16.21875 41.5 20.09375 36.953125 
Q 23.96875 32.421875 30.609375 32.421875 
z
" id="DejaVuSans-57"/>
      </defs>
      <g transform="translate(786.334516 334.998438)scale(0.1 -0.1)">
       <use xlink:href="#DejaVuSans-48"/>
       <use x="63.623047" xlink:href="#DejaVuSans-50"/>
       <use x="127.246094" xlink:href="#DejaVuSans-45"/>
       <use x="163.330078" xlink:href="#DejaVuSans-49"/>
       <use x="226.953125" xlink:href="#DejaVuSans-52"/>
       <use x="290.576172" xlink:href="#DejaVuSans-32"/>
       <use x="322.363281" xlink:href="#DejaVuSans-48"/>
       <use x="385.986328" xlink:href="#DejaVuSans-57"/>
      </g>
     </g>
    </g>
    <g id="xtick_5">
     <g id="line2d_9">
      <path clip-path="url(#pc5f44cb632)" d="M 963.352063 320.4 
L 963.352063 43.2 
" style="fill:none;stroke:#b0b0b0;stroke-linecap:square;stroke-width:0.8;"/>
     </g>
     <g id="line2d_10">
      <g>
       <use style="stroke:#000000;stroke-width:0.8;" x="963.352063" xlink:href="#m3b6fe53413" y="320.4"/>
      </g>
     </g>
     <g id="text_5">
      <!-- 02-14 12 -->
      <g transform="translate(940.871594 334.998438)scale(0.1 -0.1)">
       <use xlink:href="#DejaVuSans-48"/>
       <use x="63.623047" xlink:href="#DejaVuSans-50"/>
       <use x="127.246094" xlink:href="#DejaVuSans-45"/>
       <use x="163.330078" xlink:href="#DejaVuSans-49"/>
       <use x="226.953125" xlink:href="#DejaVuSans-52"/>
       <use x="290.576172" xlink:href="#DejaVuSans-32"/>
       <use x="322.363281" xlink:href="#DejaVuSans-49"/>
       <use x="385.986328" xlink:href="#DejaVuSans-50"/>
      </g>
     </g>
    </g>
    <g id="xtick_6">
     <g id="line2d_11">
      <path clip-path="url(#pc5f44cb632)" d="M 1117.88914 320.4 
L 1117.88914 43.2 
" style="fill:none;stroke:#b0b0b0;stroke-linecap:square;stroke-width:0.8;"/>
     </g>
     <g id="line2d_12">
      <g>
       <use style="stroke:#000000;stroke-width:0.8;" x="1117.88914" xlink:href="#m3b6fe53413" y="320.4"/>
      </g>
     </g>
     <g id="text_6">
      <!-- 02-14 15 -->
      <defs>
       <path d="M 10.796875 72.90625 
L 49.515625 72.90625 
L 49.515625 64.59375 
L 19.828125 64.59375 
L 19.828125 46.734375 
Q 21.96875 47.46875 24.109375 47.828125 
Q 26.265625 48.1875 28.421875 48.1875 
Q 40.625 48.1875 47.75 41.5 
Q 54.890625 34.8125 54.890625 23.390625 
Q 54.890625 11.625 47.5625 5.09375 
Q 40.234375 -1.421875 26.90625 -1.421875 
Q 22.3125 -1.421875 17.546875 -0.640625 
Q 12.796875 0.140625 7.71875 1.703125 
L 7.71875 11.625 
Q 12.109375 9.234375 16.796875 8.0625 
Q 21.484375 6.890625 26.703125 6.890625 
Q 35.15625 6.890625 40.078125 11.328125 
Q 45.015625 15.765625 45.015625 23.390625 
Q 45.015625 31 40.078125 35.4375 
Q 35.15625 39.890625 26.703125 39.890625 
Q 22.75 39.890625 18.8125 39.015625 
Q 14.890625 38.140625 10.796875 36.28125 
z
" id="DejaVuSans-53"/>
      </defs>
      <g transform="translate(1095.408672 334.998438)scale(0.1 -0.1)">
       <use xlink:href="#DejaVuSans-48"/>
       <use x="63.623047" xlink:href="#DejaVuSans-50"/>
       <use x="127.246094" xlink:href="#DejaVuSans-45"/>
       <use x="163.330078" xlink:href="#DejaVuSans-49"/>
       <use x="226.953125" xlink:href="#DejaVuSans-52"/>
       <use x="290.576172" xlink:href="#DejaVuSans-32"/>
       <use x="322.363281" xlink:href="#DejaVuSans-49"/>
       <use x="385.986328" xlink:href="#DejaVuSans-53"/>
      </g>
     </g>
    </g>
    <g id="xtick_7">
     <g id="line2d_13">
      <path clip-path="url(#pc5f44cb632)" d="M 1272.426218 320.4 
L 1272.426218 43.2 
" style="fill:none;stroke:#b0b0b0;stroke-linecap:square;stroke-width:0.8;"/>
     </g>
     <g id="line2d_14">
      <g>
       <use style="stroke:#000000;stroke-width:0.8;" x="1272.426218" xlink:href="#m3b6fe53413" y="320.4"/>
      </g>
     </g>
     <g id="text_7">
      <!-- 02-14 18 -->
      <defs>
       <path d="M 31.78125 34.625 
Q 24.75 34.625 20.71875 30.859375 
Q 16.703125 27.09375 16.703125 20.515625 
Q 16.703125 13.921875 20.71875 10.15625 
Q 24.75 6.390625 31.78125 6.390625 
Q 38.8125 6.390625 42.859375 10.171875 
Q 46.921875 13.96875 46.921875 20.515625 
Q 46.921875 27.09375 42.890625 30.859375 
Q 38.875 34.625 31.78125 34.625 
z
M 21.921875 38.8125 
Q 15.578125 40.375 12.03125 44.71875 
Q 8.5 49.078125 8.5 55.328125 
Q 8.5 64.0625 14.71875 69.140625 
Q 20.953125 74.21875 31.78125 74.21875 
Q 42.671875 74.21875 48.875 69.140625 
Q 55.078125 64.0625 55.078125 55.328125 
Q 55.078125 49.078125 51.53125 44.71875 
Q 48 40.375 41.703125 38.8125 
Q 48.828125 37.15625 52.796875 32.3125 
Q 56.78125 27.484375 56.78125 20.515625 
Q 56.78125 9.90625 50.3125 4.234375 
Q 43.84375 -1.421875 31.78125 -1.421875 
Q 19.734375 -1.421875 13.25 4.234375 
Q 6.78125 9.90625 6.78125 20.515625 
Q 6.78125 27.484375 10.78125 32.3125 
Q 14.796875 37.15625 21.921875 38.8125 
z
M 18.3125 54.390625 
Q 18.3125 48.734375 21.84375 45.5625 
Q 25.390625 42.390625 31.78125 42.390625 
Q 38.140625 42.390625 41.71875 45.5625 
Q 45.3125 48.734375 45.3125 54.390625 
Q 45.3125 60.0625 41.71875 63.234375 
Q 38.140625 66.40625 31.78125 66.40625 
Q 25.390625 66.40625 21.84375 63.234375 
Q 18.3125 60.0625 18.3125 54.390625 
z
" id="DejaVuSans-56"/>
      </defs>
      <g transform="translate(1249.945749 334.998438)scale(0.1 -0.1)">
       <use xlink:href="#DejaVuSans-48"/>
       <use x="63.623047" xlink:href="#DejaVuSans-50"/>
       <use x="127.246094" xlink:href="#DejaVuSans-45"/>
       <use x="163.330078" xlink:href="#DejaVuSans-49"/>
       <use x="226.953125" xlink:href="#DejaVuSans-52"/>
       <use x="290.576172" xlink:href="#DejaVuSans-32"/>
       <use x="322.363281" xlink:href="#DejaVuSans-49"/>
       <use x="385.986328" xlink:href="#DejaVuSans-56"/>
      </g>
     </g>
    </g>
    <g id="xtick_8">
     <g id="line2d_15">
      <path clip-path="url(#pc5f44cb632)" d="M 1426.963296 320.4 
L 1426.963296 43.2 
" style="fill:none;stroke:#b0b0b0;stroke-linecap:square;stroke-width:0.8;"/>
     </g>
     <g id="line2d_16">
      <g>
       <use style="stroke:#000000;stroke-width:0.8;" x="1426.963296" xlink:href="#m3b6fe53413" y="320.4"/>
      </g>
     </g>
     <g id="text_8">
      <!-- 02-14 21 -->
      <g transform="translate(1404.482827 334.998438)scale(0.1 -0.1)">
       <use xlink:href="#DejaVuSans-48"/>
       <use x="63.623047" xlink:href="#DejaVuSans-50"/>
       <use x="127.246094" xlink:href="#DejaVuSans-45"/>
       <use x="163.330078" xlink:href="#DejaVuSans-49"/>
       <use x="226.953125" xlink:href="#DejaVuSans-52"/>
       <use x="290.576172" xlink:href="#DejaVuSans-32"/>
       <use x="322.363281" xlink:href="#DejaVuSans-50"/>
       <use x="385.986328" xlink:href="#DejaVuSans-49"/>
      </g>
     </g>
    </g>
    <g id="xtick_9">
     <g id="line2d_17">
      <path clip-path="url(#pc5f44cb632)" d="M 1581.500373 320.4 
L 1581.500373 43.2 
" style="fill:none;stroke:#b0b0b0;stroke-linecap:square;stroke-width:0.8;"/>
     </g>
     <g id="line2d_18">
      <g>
       <use style="stroke:#000000;stroke-width:0.8;" x="1581.500373" xlink:href="#m3b6fe53413" y="320.4"/>
      </g>
     </g>
     <g id="text_9">
      <!-- 02-15 00 -->
      <g transform="translate(1559.019905 334.998438)scale(0.1 -0.1)">
       <use xlink:href="#DejaVuSans-48"/>
       <use x="63.623047" xlink:href="#DejaVuSans-50"/>
       <use x="127.246094" xlink:href="#DejaVuSans-45"/>
       <use x="163.330078" xlink:href="#DejaVuSans-49"/>
       <use x="226.953125" xlink:href="#DejaVuSans-53"/>
       <use x="290.576172" xlink:href="#DejaVuSans-32"/>
       <use x="322.363281" xlink:href="#DejaVuSans-48"/>
       <use x="385.986328" xlink:href="#DejaVuSans-48"/>
      </g>
     </g>
    </g>
    <g id="xtick_10">
     <g id="line2d_19">
      <path clip-path="url(#pc5f44cb632)" d="M 1736.037451 320.4 
L 1736.037451 43.2 
" style="fill:none;stroke:#b0b0b0;stroke-linecap:square;stroke-width:0.8;"/>
     </g>
     <g id="line2d_20">
      <g>
       <use style="stroke:#000000;stroke-width:0.8;" x="1736.037451" xlink:href="#m3b6fe53413" y="320.4"/>
      </g>
     </g>
     <g id="text_10">
      <!-- 02-15 03 -->
      <g transform="translate(1713.556982 334.998438)scale(0.1 -0.1)">
       <use xlink:href="#DejaVuSans-48"/>
       <use x="63.623047" xlink:href="#DejaVuSans-50"/>
       <use x="127.246094" xlink:href="#DejaVuSans-45"/>
       <use x="163.330078" xlink:href="#DejaVuSans-49"/>
       <use x="226.953125" xlink:href="#DejaVuSans-53"/>
       <use x="290.576172" xlink:href="#DejaVuSans-32"/>
       <use x="322.363281" xlink:href="#DejaVuSans-48"/>
       <use x="385.986328" xlink:href="#DejaVuSans-51"/>
      </g>
     </g>
    </g>
    <g id="xtick_11">
     <g id="line2d_21">
      <path clip-path="url(#pc5f44cb632)" d="M 1890.574529 320.4 
L 1890.574529 43.2 
" style="fill:none;stroke:#b0b0b0;stroke-linecap:square;stroke-width:0.8;"/>
     </g>
     <g id="line2d_22">
      <g>
       <use style="stroke:#000000;stroke-width:0.8;" x="1890.574529" xlink:href="#m3b6fe53413" y="320.4"/>
      </g>
     </g>
     <g id="text_11">
      <!-- 02-15 06 -->
      <g transform="translate(1868.09406 334.998438)scale(0.1 -0.1)">
       <use xlink:href="#DejaVuSans-48"/>
       <use x="63.623047" xlink:href="#DejaVuSans-50"/>
       <use x="127.246094" xlink:href="#DejaVuSans-45"/>
       <use x="163.330078" xlink:href="#DejaVuSans-49"/>
       <use x="226.953125" xlink:href="#DejaVuSans-53"/>
       <use x="290.576172" xlink:href="#DejaVuSans-32"/>
       <use x="322.363281" xlink:href="#DejaVuSans-48"/>
       <use x="385.986328" xlink:href="#DejaVuSans-54"/>
      </g>
     </g>
    </g>
   </g>
   <g id="matplotlib.axis_2">
    <g id="ytick_1">
     <g id="line2d_23">
      <path clip-path="url(#pc5f44cb632)" d="M 270 307.8 
L 1944 307.8 
" style="fill:none;stroke:#b0b0b0;stroke-linecap:square;stroke-width:0.8;"/>
     </g>
     <g id="line2d_24">
      <defs>
       <path d="M 0 0 
L -3.5 0 
" id="m41c1acd68b" style="stroke:#000000;stroke-width:0.8;"/>
      </defs>
      <g>
       <use style="stroke:#000000;stroke-width:0.8;" x="270" xlink:href="#m41c1acd68b" y="307.8"/>
      </g>
     </g>
     <g id="text_12">
      <!-- 0 -->
      <g transform="translate(256.6375 311.599219)scale(0.1 -0.1)">
       <use xlink:href="#DejaVuSans-48"/>
      </g>
     </g>
    </g>
    <g id="ytick_2">
     <g id="line2d_25">
      <path clip-path="url(#pc5f44cb632)" d="M 270 275.901266 
L 1944 275.901266 
" style="fill:none;stroke:#b0b0b0;stroke-linecap:square;stroke-width:0.8;"/>
     </g>
     <g id="line2d_26">
      <g>
       <use style="stroke:#000000;stroke-width:0.8;" x="270" xlink:href="#m41c1acd68b" y="275.901266"/>
      </g>
     </g>
     <g id="text_13">
      <!-- 10 -->
      <g transform="translate(250.275 279.700485)scale(0.1 -0.1)">
       <use xlink:href="#DejaVuSans-49"/>
       <use x="63.623047" xlink:href="#DejaVuSans-48"/>
      </g>
     </g>
    </g>
    <g id="ytick_3">
     <g id="line2d_27">
      <path clip-path="url(#pc5f44cb632)" d="M 270 244.002532 
L 1944 244.002532 
" style="fill:none;stroke:#b0b0b0;stroke-linecap:square;stroke-width:0.8;"/>
     </g>
     <g id="line2d_28">
      <g>
       <use style="stroke:#000000;stroke-width:0.8;" x="270" xlink:href="#m41c1acd68b" y="244.002532"/>
      </g>
     </g>
     <g id="text_14">
      <!-- 20 -->
      <g transform="translate(250.275 247.80175)scale(0.1 -0.1)">
       <use xlink:href="#DejaVuSans-50"/>
       <use x="63.623047" xlink:href="#DejaVuSans-48"/>
      </g>
     </g>
    </g>
    <g id="ytick_4">
     <g id="line2d_29">
      <path clip-path="url(#pc5f44cb632)" d="M 270 212.103797 
L 1944 212.103797 
" style="fill:none;stroke:#b0b0b0;stroke-linecap:square;stroke-width:0.8;"/>
     </g>
     <g id="line2d_30">
      <g>
       <use style="stroke:#000000;stroke-width:0.8;" x="270" xlink:href="#m41c1acd68b" y="212.103797"/>
      </g>
     </g>
     <g id="text_15">
      <!-- 30 -->
      <g transform="translate(250.275 215.903016)scale(0.1 -0.1)">
       <use xlink:href="#DejaVuSans-51"/>
       <use x="63.623047" xlink:href="#DejaVuSans-48"/>
      </g>
     </g>
    </g>
    <g id="ytick_5">
     <g id="line2d_31">
      <path clip-path="url(#pc5f44cb632)" d="M 270 180.205063 
L 1944 180.205063 
" style="fill:none;stroke:#b0b0b0;stroke-linecap:square;stroke-width:0.8;"/>
     </g>
     <g id="line2d_32">
      <g>
       <use style="stroke:#000000;stroke-width:0.8;" x="270" xlink:href="#m41c1acd68b" y="180.205063"/>
      </g>
     </g>
     <g id="text_16">
      <!-- 40 -->
      <g transform="translate(250.275 184.004282)scale(0.1 -0.1)">
       <use xlink:href="#DejaVuSans-52"/>
       <use x="63.623047" xlink:href="#DejaVuSans-48"/>
      </g>
     </g>
    </g>
    <g id="ytick_6">
     <g id="line2d_33">
      <path clip-path="url(#pc5f44cb632)" d="M 270 148.306329 
L 1944 148.306329 
" style="fill:none;stroke:#b0b0b0;stroke-linecap:square;stroke-width:0.8;"/>
     </g>
     <g id="line2d_34">
      <g>
       <use style="stroke:#000000;stroke-width:0.8;" x="270" xlink:href="#m41c1acd68b" y="148.306329"/>
      </g>
     </g>
     <g id="text_17">
      <!-- 50 -->
      <g transform="translate(250.275 152.105548)scale(0.1 -0.1)">
       <use xlink:href="#DejaVuSans-53"/>
       <use x="63.623047" xlink:href="#DejaVuSans-48"/>
      </g>
     </g>
    </g>
    <g id="ytick_7">
     <g id="line2d_35">
      <path clip-path="url(#pc5f44cb632)" d="M 270 116.407595 
L 1944 116.407595 
" style="fill:none;stroke:#b0b0b0;stroke-linecap:square;stroke-width:0.8;"/>
     </g>
     <g id="line2d_36">
      <g>
       <use style="stroke:#000000;stroke-width:0.8;" x="270" xlink:href="#m41c1acd68b" y="116.407595"/>
      </g>
     </g>
     <g id="text_18">
      <!-- 60 -->
      <g transform="translate(250.275 120.206814)scale(0.1 -0.1)">
       <use xlink:href="#DejaVuSans-54"/>
       <use x="63.623047" xlink:href="#DejaVuSans-48"/>
      </g>
     </g>
    </g>
    <g id="ytick_8">
     <g id="line2d_37">
      <path clip-path="url(#pc5f44cb632)" d="M 270 84.508861 
L 1944 84.508861 
" style="fill:none;stroke:#b0b0b0;stroke-linecap:square;stroke-width:0.8;"/>
     </g>
     <g id="line2d_38">
      <g>
       <use style="stroke:#000000;stroke-width:0.8;" x="270" xlink:href="#m41c1acd68b" y="84.508861"/>
      </g>
     </g>
     <g id="text_19">
      <!-- 70 -->
      <defs>
       <path d="M 8.203125 72.90625 
L 55.078125 72.90625 
L 55.078125 68.703125 
L 28.609375 0 
L 18.3125 0 
L 43.21875 64.59375 
L 8.203125 64.59375 
z
" id="DejaVuSans-55"/>
      </defs>
      <g transform="translate(250.275 88.30808)scale(0.1 -0.1)">
       <use xlink:href="#DejaVuSans-55"/>
       <use x="63.623047" xlink:href="#DejaVuSans-48"/>
      </g>
     </g>
    </g>
    <g id="ytick_9">
     <g id="line2d_39">
      <path clip-path="url(#pc5f44cb632)" d="M 270 52.610127 
L 1944 52.610127 
" style="fill:none;stroke:#b0b0b0;stroke-linecap:square;stroke-width:0.8;"/>
     </g>
     <g id="line2d_40">
      <g>
       <use style="stroke:#000000;stroke-width:0.8;" x="270" xlink:href="#m41c1acd68b" y="52.610127"/>
      </g>
     </g>
     <g id="text_20">
      <!-- 80 -->
      <g transform="translate(250.275 56.409345)scale(0.1 -0.1)">
       <use xlink:href="#DejaVuSans-56"/>
       <use x="63.623047" xlink:href="#DejaVuSans-48"/>
      </g>
     </g>
    </g>
   </g>
   <g id="line2d_41">
    <path clip-path="url(#pc5f44cb632)" d="M 1867.909091 307.8 
L 1866.192012 307.8 
L 1864.474934 279.091139 
L 1862.757855 269.521519 
L 1861.040776 307.8 
L 1859.309389 237.622785 
L 1857.620928 224.863291 
L 1855.88954 298.23038 
L 1854.158153 291.850633 
L 1852.441074 304.610127 
L 1850.723995 304.610127 
L 1849.006917 269.521519 
L 1847.304147 78.129114 
L 1845.57276 113.217722 
L 1843.86999 263.141772 
L 1842.152911 259.951899 
L 1840.421524 307.8 
L 1835.270288 307.8 
L 1833.567518 288.660759 
L 1831.83613 129.167089 
L 1830.119052 78.129114 
L 1828.401973 129.167089 
L 1826.699203 78.129114 
L 1824.967816 87.698734 
L 1823.250737 81.318987 
L 1821.533659 71.749367 
L 1819.830889 90.888608 
L 1818.11381 81.318987 
L 1816.382423 81.318987 
L 1814.665344 78.129114 
L 1812.948265 78.129114 
L 1811.231187 81.318987 
L 1809.528417 71.749367 
L 1806.09426 71.749367 
L 1804.377181 81.318987 
L 1802.660102 78.129114 
L 1800.928715 81.318987 
L 1799.211636 138.736709 
L 1797.494557 138.736709 
L 1795.777479 135.546835 
L 1794.0604 90.888608 
L 1792.357631 103.648101 
L 1790.626243 78.129114 
L 1788.894855 81.318987 
L 1787.177777 78.129114 
L 1783.757928 78.129114 
L 1782.026541 81.318987 
L 1780.33808 87.698734 
L 1778.592384 87.698734 
L 1776.875305 78.129114 
L 1775.172535 78.129114 
L 1773.441148 81.318987 
L 1771.738378 94.078481 
L 1770.00699 87.698734 
L 1768.289912 97.268354 
L 1766.572833 307.8 
L 1761.435906 307.8 
L 1760.162406 237.622785 
L 1759.718827 164.255696 
L 1757.98744 141.926582 
L 1756.270361 129.167089 
L 1754.553283 129.167089 
L 1752.836204 106.837975 
L 1751.133434 129.167089 
L 1749.402047 106.837975 
L 1747.684968 116.407595 
L 1745.967889 116.407595 
L 1744.250811 94.078481 
L 1742.533732 122.787342 
L 1740.830962 90.888608 
L 1739.099575 103.648101 
L 1737.382496 110.027848 
L 1735.679726 113.217722 
L 1733.948339 122.787342 
L 1732.23126 119.597468 
L 1730.514182 145.116456 
L 1728.797103 161.065823 
L 1727.080024 145.116456 
L 1725.362946 138.736709 
L 1723.660176 177.01519 
L 1721.928788 113.217722 
L 1720.21171 97.268354 
L 1718.494631 119.597468 
L 1716.777552 113.217722 
L 1715.060474 122.787342 
L 1713.357704 129.167089 
L 1711.626317 307.8 
L 1709.894929 154.686076 
L 1708.192159 141.926582 
L 1706.460772 161.065823 
L 1704.758002 145.116456 
L 1703.026614 259.951899 
L 1701.323845 138.736709 
L 1699.592457 164.255696 
L 1697.889687 167.44557 
L 1696.172609 145.116456 
L 1694.45553 196.15443 
L 1692.738451 205.724051 
L 1691.021373 110.027848 
L 1689.304294 103.648101 
L 1687.587216 103.648101 
L 1685.870137 106.837975 
L 1684.153058 116.407595 
L 1682.43598 90.888608 
L 1680.718901 94.078481 
L 1679.001822 106.837975 
L 1677.270435 106.837975 
L 1675.553356 94.078481 
L 1673.836277 122.787342 
L 1672.133508 106.837975 
L 1670.416429 97.268354 
L 1668.685042 116.407595 
L 1666.967963 119.597468 
L 1665.250884 141.926582 
L 1663.533806 170.635443 
L 1661.816727 212.103797 
L 1660.113957 129.167089 
L 1658.38257 304.610127 
L 1656.665491 228.053165 
L 1654.97703 307.8 
L 1649.797176 307.8 
L 1648.080098 304.610127 
L 1646.377328 154.686076 
L 1644.645941 135.546835 
L 1642.943171 145.116456 
L 1641.226092 307.8 
L 1636.074856 307.8 
L 1634.343469 266.331646 
L 1632.640699 90.888608 
L 1630.909311 113.217722 
L 1629.192233 113.217722 
L 1627.489463 78.129114 
L 1625.758075 177.01519 
L 1624.040997 116.407595 
L 1622.338227 113.217722 
L 1620.60684 141.926582 
L 1618.90407 218.483544 
L 1617.186991 307.8 
L 1570.453834 307.8 
L 1568.736756 253.572152 
L 1567.019677 253.572152 
L 1565.302598 122.787342 
L 1563.58552 116.407595 
L 1561.868441 132.356962 
L 1560.151362 81.318987 
L 1558.434284 81.318987 
L 1556.717205 62.179747 
L 1555.000126 78.129114 
L 1553.283048 81.318987 
L 1551.565969 78.129114 
L 1549.848891 81.318987 
L 1548.131812 151.496203 
L 1546.414733 141.926582 
L 1544.697655 119.597468 
L 1542.980576 151.496203 
L 1541.263497 103.648101 
L 1539.546419 177.01519 
L 1537.82934 119.597468 
L 1536.097952 192.964557 
L 1534.395183 145.116456 
L 1532.678104 129.167089 
L 1530.946717 132.356962 
L 1529.243947 97.268354 
L 1527.512559 103.648101 
L 1524.092711 90.888608 
L 1522.375632 94.078481 
L 1520.658554 116.407595 
L 1518.941475 237.622785 
L 1517.224396 113.217722 
L 1515.507318 250.382278 
L 1513.790239 135.546835 
L 1512.073161 119.597468 
L 1510.356082 285.470886 
L 1508.639003 119.597468 
L 1506.921924 129.167089 
L 1503.487767 129.167089 
L 1501.770689 68.559494 
L 1500.05361 119.597468 
L 1498.336531 151.496203 
L 1496.619453 94.078481 
L 1494.902374 164.255696 
L 1493.185295 90.888608 
L 1491.468217 269.521519 
L 1489.751138 141.926582 
L 1488.03406 129.167089 
L 1486.302672 205.724051 
L 1484.599902 212.103797 
L 1482.868515 177.01519 
L 1481.165745 106.837975 
L 1479.448666 307.8 
L 1477.717279 103.648101 
L 1476.014509 87.698734 
L 1474.29743 78.129114 
L 1472.580352 154.686076 
L 1470.848964 106.837975 
L 1469.131885 94.078481 
L 1467.429116 113.217722 
L 1465.697728 110.027848 
L 1463.994959 269.521519 
L 1462.263571 138.736709 
L 1460.560801 106.837975 
L 1458.843722 87.698734 
L 1457.126644 196.15443 
L 1455.395256 129.167089 
L 1453.692487 138.736709 
L 1451.975408 78.129114 
L 1450.258329 78.129114 
L 1448.541251 81.318987 
L 1446.824172 90.888608 
L 1445.107093 78.129114 
L 1443.390015 81.318987 
L 1441.672936 78.129114 
L 1439.955858 71.749367 
L 1438.238779 68.559494 
L 1436.5217 87.698734 
L 1434.804622 78.129114 
L 1433.087543 71.749367 
L 1431.370464 94.078481 
L 1429.653386 90.888608 
L 1427.936307 71.749367 
L 1426.219228 87.698734 
L 1424.50215 87.698734 
L 1422.785071 78.129114 
L 1421.067992 103.648101 
L 1419.350914 103.648101 
L 1417.633835 78.129114 
L 1415.916757 87.698734 
L 1414.199678 103.648101 
L 1412.482599 87.698734 
L 1410.765521 78.129114 
L 1409.048442 78.129114 
L 1407.331363 97.268354 
L 1405.614285 113.217722 
L 1403.897206 71.749367 
L 1402.165818 81.318987 
L 1400.463049 119.597468 
L 1398.74597 90.888608 
L 1397.028891 177.01519 
L 1395.311813 129.167089 
L 1393.594734 68.559494 
L 1391.877656 97.268354 
L 1390.160577 113.217722 
L 1388.443498 103.648101 
L 1386.72642 106.837975 
L 1385.009341 87.698734 
L 1383.292262 161.065823 
L 1381.575184 177.01519 
L 1379.858105 275.901266 
L 1378.141026 307.8 
L 1211.584398 307.8 
L 1210.868949 298.23038 
L 1210.582769 285.470886 
L 1210.267971 307.8 
L 1208.522275 307.8 
L 1207.434792 304.610127 
L 1206.805196 259.951899 
L 1206.633488 304.610127 
L 1205.088117 196.15443 
L 1203.528437 304.610127 
L 1203.371039 244.002532 
L 1202.841606 298.23038 
L 1201.65396 161.065823 
L 1199.936881 103.648101 
L 1198.248421 103.648101 
L 1196.517033 116.407595 
L 1194.799955 122.787342 
L 1193.068567 113.217722 
L 1191.365797 189.774684 
L 1190.407095 285.470886 
L 1189.963516 298.23038 
L 1189.63441 215.293671 
L 1187.917331 205.724051 
L 1186.214561 298.23038 
L 1184.483174 263.141772 
L 1182.766095 244.002532 
L 1182.608696 307.8 
L 1182.351134 304.610127 
L 1181.607067 307.8 
L 1181.063325 307.8 
L 1180.347876 298.23038 
L 1180.061696 279.091139 
L 1179.331938 307.8 
L 1179.145921 298.23038 
L 1178.859741 307.8 
L 1177.88673 291.850633 
L 1177.643477 285.470886 
L 1177.614859 288.660759 
L 1177.271443 301.420253 
L 1176.842174 285.470886 
L 1175.912089 307.8 
L 1174.323792 304.610127 
L 1174.152084 224.863291 
L 1173.264927 285.470886 
L 1173.164764 301.420253 
L 1172.578095 285.470886 
L 1172.449314 304.610127 
L 1171.848337 275.901266 
L 1171.433376 304.610127 
L 1171.118578 285.470886 
L 1170.732236 307.8 
L 1057.390736 307.8 
L 1056.331871 301.420253 
L 1055.988455 291.850633 
L 1055.687967 307.8 
L 1054.7865 304.610127 
L 1054.614792 231.243038 
L 1054.500321 307.8 
L 1053.970888 307.8 
L 1053.670399 304.610127 
L 1052.854787 279.091139 
L 1052.253809 307.8 
L 1052.2395 304.610127 
L 1050.536731 231.243038 
L 1049.83559 307.8 
L 1048.977051 307.8 
L 1048.805343 285.470886 
L 1048.461927 291.850633 
L 1047.674933 298.23038 
L 1047.546152 285.470886 
L 1047.274281 279.091139 
L 1047.088264 285.470886 
L 1028.085927 307.8 
L 1024.279736 307.8 
L 1023.778922 298.23038 
L 1022.934691 307.8 
L 1020.83127 307.8 
L 1019.543461 285.470886 
L 1019.128501 307.8 
L 1018.327197 304.610127 
L 1017.626057 285.470886 
L 1017.411422 307.8 
L 1017.225405 304.610127 
L 1016.939225 285.470886 
L 1016.681664 304.610127 
L 1016.409793 307.8 
L 1015.851742 301.420253 
L 1015.694343 196.15443 
L 1014.821495 307.8 
L 1013.977265 307.8 
L 1013.877102 304.610127 
L 1013.247506 288.660759 
L 1012.617911 291.850633 
L 1012.317422 279.091139 
L 1012.260186 307.8 
L 1010.543107 304.610127 
L 1008.826029 307.8 
L 1008.554158 307.8 
L 1008.310905 285.470886 
L 1007.10895 307.8 
L 1006.393501 285.470886 
L 1005.678051 288.660759 
L 1005.391871 307.8 
L 1005.062765 307.8 
L 1003.674793 196.15443 
L 1003.374304 288.660759 
L 1003.00227 304.610127 
L 1002.44422 279.091139 
L 1002.057877 307.8 
L 1001.957714 259.951899 
L 1000.240636 138.736709 
L 998.523557 138.736709 
L 996.806478 180.205063 
L 995.0894 186.58481 
L 993.372321 186.58481 
L 991.655242 103.648101 
L 988.221085 90.888608 
L 986.504006 78.129114 
L 984.786928 244.002532 
L 983.255866 288.660759 
L 983.069849 307.8 
L 982.440253 301.420253 
L 981.35277 218.483544 
L 980.823338 304.610127 
L 980.022034 285.470886 
L 979.635692 307.8 
L 974.484456 307.8 
L 973.99795 304.610127 
L 972.767377 253.572152 
L 971.522495 285.470886 
L 971.365096 304.610127 
L 971.050299 196.15443 
L 969.47631 285.470886 
L 969.33322 307.8 
L 967.616141 307.8 
L 967.544596 304.610127 
L 967.387197 307.8 
L 967.058091 304.610127 
L 966.299714 285.470886 
L 966.013535 301.420253 
L 965.899063 263.141772 
L 965.269467 208.913924 
L 965.126377 237.622785 
L 964.983287 301.420253 
L 964.511091 307.8 
L 951.947799 307.8 
L 950.559827 304.610127 
L 950.23072 269.521519 
L 949.787141 288.660759 
L 949.672669 301.420253 
L 948.513641 307.8 
L 947.454776 304.610127 
L 946.782254 192.964557 
L 945.85217 269.521519 
L 945.065175 307.8 
L 944.736068 304.610127 
L 943.820293 285.470886 
L 943.305169 307.8 
L 942.518175 279.091139 
L 942.375085 304.610127 
L 941.645327 186.58481 
L 940.028411 285.470886 
L 939.928248 307.8 
L 939.527596 307.8 
L 939.398816 285.470886 
L 939.012473 298.23038 
L 938.869383 285.470886 
L 938.740602 298.23038 
L 938.21117 202.534177 
L 936.494091 180.205063 
L 934.777012 263.141772 
L 934.590995 307.8 
L 931.342855 307.8 
L 930.1409 304.610127 
L 929.99781 285.470886 
L 929.611467 307.8 
L 927.908698 307.8 
L 927.250484 304.610127 
L 926.191619 212.103797 
L 924.47454 275.901266 
L 922.972097 288.660759 
L 922.843316 301.420253 
L 922.757462 266.331646 
L 921.65567 279.091139 
L 921.040383 307.8 
L 920.997456 291.850633 
L 920.167535 307.8 
L 919.781192 307.8 
L 919.323305 192.964557 
L 917.949642 307.8 
L 917.606226 298.23038 
L 917.591917 288.660759 
L 916.747687 307.8 
L 916.118091 301.420253 
L 915.889147 224.863291 
L 915.016299 285.470886 
L 914.801664 285.470886 
L 914.57272 269.521519 
L 914.472557 304.610127 
L 914.172069 259.951899 
L 913.971743 285.470886 
L 912.784097 307.8 
L 912.655316 288.660759 
L 912.45499 307.8 
L 911.18149 288.660759 
L 910.780838 275.901266 
L 910.737911 288.660759 
L 909.020833 304.610127 
L 907.346681 291.850633 
L 907.303754 288.660759 
L 905.586675 218.483544 
L 903.855288 186.58481 
L 903.3974 285.470886 
L 903.182765 304.610127 
L 902.596097 279.091139 
L 902.195445 298.23038 
L 902.152518 279.091139 
L 900.435439 161.065823 
L 898.718361 116.407595 
L 897.001282 129.167089 
L 895.284204 132.356962 
L 893.567125 113.217722 
L 891.850046 81.318987 
L 890.132968 122.787342 
L 888.40158 106.837975 
L 886.69881 263.141772 
L 885.625636 288.660759 
L 884.981732 307.8 
L 884.538153 298.23038 
L 883.951485 279.091139 
L 883.679614 304.610127 
L 883.264653 266.331646 
L 883.207417 291.850633 
L 882.577822 279.091139 
L 881.547574 269.521519 
L 880.317001 279.091139 
L 880.016513 279.091139 
L 879.816187 301.420253 
L 878.113417 307.8 
L 853.544884 307.8 
L 852.04244 304.610127 
L 851.827805 263.141772 
L 851.741951 307.8 
L 850.568614 301.420253 
L 850.096417 269.521519 
L 850.024872 285.470886 
L 848.379339 307.8 
L 848.107468 301.420253 
L 847.306165 279.091139 
L 847.120148 304.610127 
L 846.66226 164.255696 
L 845.274288 285.470886 
L 844.945181 291.850633 
L 844.587457 275.901266 
L 844.25835 304.610127 
L 843.228103 151.496203 
L 841.525333 122.787342 
L 839.793946 161.065823 
L 838.091176 263.141772 
L 836.359788 224.863291 
L 834.657019 113.217722 
L 832.925631 113.217722 
L 831.208552 132.356962 
L 829.505783 106.837975 
L 827.788704 164.255696 
L 827.402361 307.8 
L 827.116181 288.660759 
L 826.057316 288.660759 
L 825.957153 301.420253 
L 825.15585 279.091139 
L 824.697963 301.420253 
L 824.340238 177.01519 
L 823.410153 307.8 
L 822.623159 307.8 
L 822.480069 298.23038 
L 821.664457 279.091139 
L 820.90608 307.8 
L 817.471923 307.8 
L 816.627693 298.23038 
L 815.754845 192.964557 
L 814.910614 285.470886 
L 814.052075 307.8 
L 813.579878 307.8 
L 812.334996 186.58481 
L 810.617918 298.23038 
L 810.274502 288.660759 
L 810.217266 307.8 
L 810.088485 263.141772 
L 808.900839 253.572152 
L 808.729131 279.091139 
L 808.700513 275.901266 
L 807.169451 192.964557 
L 805.452373 244.002532 
L 805.108957 285.470886 
L 803.749603 301.420253 
L 802.647811 301.420253 
L 802.647811 301.420253 
L 802.032524 259.951899 
L 800.315446 189.774684 
L 799.886176 304.610127 
L 798.598367 189.774684 
L 796.967142 285.470886 
L 796.866979 307.8 
L 796.409092 298.23038 
L 795.16421 186.58481 
L 793.447131 307.8 
L 793.103715 307.8 
L 792.04485 279.091139 
L 791.730052 307.8 
L 791.687125 304.610127 
L 790.141755 288.660759 
L 790.041592 298.23038 
L 790.012974 285.470886 
L 789.755412 288.660759 
L 788.825328 304.610127 
L 788.36744 275.901266 
L 788.295895 285.470886 
L 786.993777 304.610127 
L 786.850687 279.091139 
L 786.564507 307.8 
L 785.477024 298.23038 
L 784.861738 269.521519 
L 783.144659 253.572152 
L 781.413272 196.15443 
L 779.381395 298.23038 
L 777.979114 212.103797 
L 777.635699 288.660759 
L 777.106266 269.521519 
L 776.276345 167.44557 
L 774.559266 244.002532 
L 774.50203 285.470886 
L 772.842187 307.8 
L 772.012266 304.610127 
L 771.125109 177.01519 
L 769.393721 189.774684 
L 767.690951 234.432911 
L 767.2903 288.660759 
L 766.431761 298.23038 
L 765.973873 164.255696 
L 765.215497 285.470886 
L 764.686064 307.8 
L 764.686064 307.8 
L 764.256794 170.635443 
L 762.654187 285.470886 
L 762.539716 304.610127 
L 762.139064 285.470886 
L 761.652558 285.470886 
L 761.394997 301.420253 
L 760.808328 269.521519 
L 759.878244 285.470886 
L 759.091249 307.8 
L 748.803086 307.8 
L 747.644058 301.420253 
L 747.086008 269.521519 
L 745.368929 189.774684 
L 743.637542 186.58481 
L 742.836238 307.8 
L 742.492823 298.23038 
L 741.934772 202.534177 
L 741.290867 291.850633 
L 741.190704 279.091139 
L 740.904525 285.470886 
L 740.718508 304.610127 
L 740.203384 224.863291 
L 739.84566 291.850633 
L 739.70257 259.951899 
L 739.058665 231.243038 
L 738.500615 231.243038 
L 736.769227 228.053165 
L 736.626137 298.23038 
L 736.168249 285.470886 
L 735.066457 307.8 
L 733.420924 298.23038 
L 733.349379 275.901266 
L 732.791328 275.901266 
L 732.605311 304.610127 
L 731.617991 167.44557 
L 729.900912 186.58481 
L 728.183834 307.8 
L 727.883345 301.420253 
L 726.481064 205.724051 
L 724.763985 205.724051 
L 724.434879 291.850633 
L 723.061216 291.850633 
L 723.032598 285.470886 
L 722.703491 307.8 
L 721.859261 298.23038 
L 721.315519 279.091139 
L 720.471289 307.8 
L 720.213727 288.660759 
L 719.61275 224.863291 
L 719.340879 307.8 
L 712.730126 307.8 
L 712.458255 298.23038 
L 712.186384 266.331646 
L 712.014677 288.660759 
L 711.013047 307.8 
L 597.013335 307.8 
L 596.827318 269.521519 
L 595.782762 285.470886 
L 595.639672 301.420253 
L 595.110239 177.01519 
L 593.378852 189.774684 
L 592.863728 307.8 
L 592.133969 301.420253 
L 591.676082 189.774684 
L 591.447138 279.091139 
L 590.459818 304.610127 
L 589.959003 202.534177 
L 589.472498 307.8 
L 583.090689 307.8 
L 582.532638 301.420253 
L 581.988896 307.8 
L 581.817189 301.420253 
L 581.37361 231.243038 
L 579.742385 135.546835 
L 577.939453 116.407595 
L 576.222374 94.078481 
L 574.505296 106.837975 
L 572.788217 106.837975 
L 571.071138 90.888608 
L 569.35406 113.217722 
L 567.636981 113.217722 
L 565.919902 90.888608 
L 564.202824 103.648101 
L 562.485745 103.648101 
L 560.754357 90.888608 
L 559.037279 94.078481 
L 557.334509 87.698734 
L 555.61743 87.698734 
L 553.900352 81.318987 
L 552.183273 94.078481 
L 548.734807 87.698734 
L 547.017728 90.888608 
L 545.30065 106.837975 
L 543.583571 94.078481 
L 541.866492 119.597468 
L 540.149414 129.167089 
L 538.432335 103.648101 
L 536.715256 90.888608 
L 534.998178 87.698734 
L 533.281099 78.129114 
L 531.56402 90.888608 
L 529.861251 87.698734 
L 528.129863 81.318987 
L 526.412784 87.698734 
L 524.695706 71.749367 
L 522.978627 94.078481 
L 521.261549 81.318987 
L 519.54447 81.318987 
L 517.827391 87.698734 
L 514.393234 55.8 
L 512.676155 81.318987 
L 510.959077 116.407595 
L 510.157773 307.8 
L 509.241998 307.8 
L 508.65533 288.660759 
L 508.412077 291.850633 
L 508.354841 298.23038 
L 508.040043 285.470886 
L 507.982807 301.420253 
L 507.524919 151.496203 
L 506.494672 307.8 
L 506.280037 304.610127 
L 505.807841 145.116456 
L 504.090762 151.496203 
L 502.373683 122.787342 
L 500.656605 122.787342 
L 498.939526 138.736709 
L 497.222448 103.648101 
L 495.505369 106.837975 
L 493.78829 138.736709 
L 492.071212 106.837975 
L 490.354133 113.217722 
L 488.637054 87.698734 
L 486.919976 90.888608 
L 485.202897 113.217722 
L 483.485818 122.787342 
L 481.76874 116.407595 
L 480.051661 141.926582 
L 479.007105 298.23038 
L 478.334582 151.496203 
L 476.617504 151.496203 
L 474.900425 145.116456 
L 473.183347 154.686076 
L 471.466268 97.268354 
L 469.749189 307.8 
L 469.706262 288.660759 
L 468.032111 97.268354 
L 466.300723 94.078481 
L 464.597953 97.268354 
L 461.163796 116.407595 
L 459.446717 132.356962 
L 457.71533 113.217722 
L 455.998251 129.167089 
L 454.281173 307.8 
L 454.095156 304.610127 
L 452.564094 141.926582 
L 452.091897 307.8 
L 451.734173 307.8 
L 450.847015 132.356962 
L 449.129937 135.546835 
L 447.412858 151.496203 
L 445.695779 129.167089 
L 443.978701 186.58481 
L 442.261622 167.44557 
L 440.544543 97.268354 
L 438.827465 106.837975 
L 437.110386 103.648101 
L 435.393308 87.698734 
L 433.676229 87.698734 
L 431.95915 106.837975 
L 430.242072 103.648101 
L 428.524993 97.268354 
L 426.807914 103.648101 
L 425.090836 94.078481 
L 423.373757 90.888608 
L 421.656678 103.648101 
L 419.9396 129.167089 
L 418.222521 132.356962 
L 416.505442 119.597468 
L 414.774055 167.44557 
L 413.071285 180.205063 
L 411.940875 298.23038 
L 411.354207 129.167089 
L 410.023471 307.8 
L 409.808836 301.420253 
L 409.622819 167.44557 
L 407.90574 307.8 
L 406.188662 307.8 
L 405.129796 304.610127 
L 404.485892 202.534177 
L 404.185403 307.8 
L 403.727516 298.23038 
L 402.754504 141.926582 
L 401.037426 141.926582 
L 400.436448 224.863291 
L 400.250431 304.610127 
L 399.334656 145.116456 
L 398.633516 307.8 
L 394.169111 307.8 
L 393.010083 304.610127 
L 392.452033 269.521519 
L 392.337561 301.420253 
L 390.734954 90.888608 
L 389.017875 119.597468 
L 387.300797 90.888608 
L 385.583718 78.129114 
L 383.866639 250.382278 
L 383.766476 301.420253 
L 383.680622 269.521519 
L 382.149561 129.167089 
L 380.432482 113.217722 
L 378.715403 135.546835 
L 376.998325 177.01519 
L 376.139785 307.8 
L 346.090909 307.8 
L 346.090909 307.8 
" style="fill:none;stroke:#1f77b4;stroke-linecap:square;stroke-width:1.5;"/>
   </g>
   <g id="patch_3">
    <path d="M 270 320.4 
L 270 43.2 
" style="fill:none;stroke:#000000;stroke-linecap:square;stroke-linejoin:miter;stroke-width:0.8;"/>
   </g>
   <g id="patch_4">
    <path d="M 1944 320.4 
L 1944 43.2 
" style="fill:none;stroke:#000000;stroke-linecap:square;stroke-linejoin:miter;stroke-width:0.8;"/>
   </g>
   <g id="patch_5">
    <path d="M 270 320.4 
L 1944 320.4 
" style="fill:none;stroke:#000000;stroke-linecap:square;stroke-linejoin:miter;stroke-width:0.8;"/>
   </g>
   <g id="patch_6">
    <path d="M 270 43.2 
L 1944 43.2 
" style="fill:none;stroke:#000000;stroke-linecap:square;stroke-linejoin:miter;stroke-width:0.8;"/>
   </g>
  </g>
 </g>
 <defs>
  <clipPath id="pc5f44cb632">
   <rect height="277.2" width="1674" x="270" y="43.2"/>
  </clipPath>
 </defs>
</svg>
